<?xml version="1.0" encoding="UTF-8"?>
<svg id="Layer_1" data-name="Layer 1" xmlns="http://www.w3.org/2000/svg" viewBox="0 0 1658.83 2170.57">
  <defs>
    <style>
      .cls-1 {
        fill: #fdf27a;
      }

      .cls-2 {
        fill: #faf4e0;
      }

      .cls-3 {
        fill: #fcdd60;
      }
    </style>
  </defs>
  <path class="cls-1" d="M919.51,844.28c-21.1-34.61,30.88-118.17,51.17-258.07,9.7-66.86,7.73-116.02,4.65-192.69-9.49-236.64-69.46-377.18-51.17-392.26,12.16-10.03,52.03,41.1,72.1,106.67,19.91,65.04,9.76,109.73,6.98,230.54-3.08,133.77,8.35,122.86,4.65,254.63-3.54,126.26-7.36,234.13-46.52,258.07-12.99,7.94-32.6,8.31-41.87-6.88Z"/>
  <g>
    <circle class="cls-3" cx="771.93" cy="974.33" r="177.08"/>
    <circle class="cls-2" cx="672.04" cy="938" r="55.4"/>
  </g>
  <g>
    <circle class="cls-3" cx="1124.21" cy="973.01" r="177.08"/>
    <circle class="cls-2" cx="1024.32" cy="936.69" r="55.4"/>
  </g>
  <g>
    <circle class="cls-3" cx="422.28" cy="1329.23" r="177.08"/>
    <circle class="cls-2" cx="322.39" cy="1292.91" r="55.4"/>
  </g>
  <g>
    <circle class="cls-3" cx="774.56" cy="1327.92" r="177.08"/>
    <circle class="cls-2" cx="674.67" cy="1291.6" r="55.4"/>
  </g>
  <g>
    <circle class="cls-3" cx="1129.47" cy="1323.98" r="177.08"/>
    <circle class="cls-2" cx="1029.58" cy="1287.65" r="55.4"/>
  </g>
  <g>
    <circle class="cls-3" cx="1481.75" cy="1322.66" r="177.08"/>
    <circle class="cls-2" cx="1381.85" cy="1286.34" r="55.4"/>
  </g>
  <g>
    <circle class="cls-3" cx="767.99" cy="1685.46" r="177.08"/>
    <circle class="cls-2" cx="668.1" cy="1649.13" r="55.4"/>
  </g>
  <g>
    <circle class="cls-3" cx="1122.9" cy="1681.51" r="177.08"/>
    <circle class="cls-2" cx="1023" cy="1645.19" r="55.4"/>
  </g>
  <g>
    <circle class="cls-3" cx="951.14" cy="1993.48" r="177.08"/>
    <circle class="cls-2" cx="851.25" cy="1957.16" r="55.4"/>
  </g>
  <g>
    <path class="cls-1" d="M98.74,507.51c147.95-42.38,236.44,2.23,313.47,124.19,9.81,14.67,11.65,17.84,4.55-.76-4.93-13.07-10.88-30.41-14.52-46-7.86-32.1-9.24-66.47-4.37-99.22,3.75-27.23,10.54-51.07,9.76-74.1-.88-34.66-17.52-66.91-37.14-93.16,8.06-11.42,156.87,31.83,206.8,144.91,40.84,92.51-2.26,191.48,15.31,195.83,30.01-34.59,47.69-83.82,54.38-130.01,1.83-10.94,5.52-37.01,12.73-37.27,3.67-.89,8.34,3.08,13.57,10.49,56.08,87.34,53.69,235.69-54.04,293-24.48,12.71-51.36,19.36-78.35,26.12"/>
    <path class="cls-1" d="M101.48,508.05c3.93,154.35,74.32,225.74,213.64,264.76,17.09,5.29,20.47,6.18.45,4.8-14.08-.92-32.59-1.62-48.72-.61-33.18,1.71-66.68,10.22-96.84,24.31-25.07,11.4-45.97,24.73-68.38,30.61-33.81,9.15-69.83,2.51-101.05-8.58-8.55,11.06,76.5,140.61,199.26,155.12,100.42,11.87,182.37-58.4,191.69-42.88-25.27,38.52-68.6,68.81-111.6,87.74-10.18,4.73-34.98,15.57-33.03,22.34,2.29,10.56,34.31,14.48,45.75,16.31,111.49,15.03,249.84-51.44,240.99-182.71-.18-13.3-1.14-27.05-2.12-40.8"/>
  </g>
</svg>