<?xml version="1.0" encoding="UTF-8"?>
<svg id="Layer_1" data-name="Layer 1" xmlns="http://www.w3.org/2000/svg" viewBox="0 0 2415.3 884.72">
  <defs>
    <style>
      .cls-1 {
        letter-spacing: 0em;
      }

      .cls-2 {
        fill: #fdf27a;
      }

      .cls-3 {
        letter-spacing: 0em;
      }

      .cls-4 {
        fill: #231f20;
        font-family: Montserrat-Medium, Montserrat;
        font-size: 114.05px;
        font-variation-settings: 'wght' 500;
        font-weight: 500;
      }

      .cls-4, .cls-5 {
        stroke: #eff3f5;
      }

      .cls-6 {
        letter-spacing: -.02em;
      }

      .cls-7 {
        letter-spacing: -.02em;
      }

      .cls-8 {
        fill: #faf4e0;
      }

      .cls-5 {
        font-family: Crushed-Regular, Crushed;
        font-size: 570.25px;
      }

      .cls-9 {
        fill: #fcdd60;
      }

      .cls-10 {
        letter-spacing: 0em;
      }
    </style>
  </defs>
  <text class="cls-5" transform="translate(646.61 712.95)"><tspan x="0" y="0">H</tspan><tspan class="cls-6" x="265.35" y="0">A</tspan><tspan x="486.72" y="0">VBLINK</tspan></text>
  <text class="cls-4" transform="translate(661.53 832.56)"><tspan class="cls-10" x="0" y="0">Den Dans</tspan><tspan class="cls-7" x="566.82" y="0">k</tspan><tspan class="cls-10" x="634.11" y="0">e Al</tspan><tspan class="cls-7" x="848.52" y="0">k</tspan><tspan class="cls-10" x="915.81" y="0">oholf</tspan><tspan class="cls-3" x="1208.69" y="0">r</tspan><tspan class="cls-1" x="1254.31" y="0">i Hvidvin</tspan></text>
  <path class="cls-2" d="M370.03,339.75c-8.49-13.93,12.43-47.56,20.59-103.85,3.9-26.9,3.11-46.69,1.87-77.54-3.82-95.23-27.95-151.78-20.59-157.85,4.89-4.04,20.94,16.54,29.02,42.92,8.01,26.17,3.93,44.16,2.81,92.77-1.24,53.83,3.36,49.44,1.87,102.47-1.43,50.81-2.96,94.22-18.72,103.85-5.23,3.2-13.12,3.34-16.85-2.77Z"/>
  <g>
    <circle class="cls-9" cx="310.64" cy="392.09" r="71.26"/>
    <circle class="cls-8" cx="270.44" cy="377.47" r="22.29"/>
  </g>
  <g>
    <circle class="cls-9" cx="452.4" cy="391.56" r="71.26"/>
    <circle class="cls-8" cx="412.2" cy="376.94" r="22.29"/>
  </g>
  <g>
    <circle class="cls-9" cx="169.93" cy="534.91" r="71.26"/>
    <circle class="cls-8" cx="129.74" cy="520.29" r="22.29"/>
  </g>
  <g>
    <circle class="cls-9" cx="311.7" cy="534.38" r="71.26"/>
    <circle class="cls-8" cx="271.5" cy="519.76" r="22.29"/>
  </g>
  <g>
    <circle class="cls-9" cx="454.52" cy="532.79" r="71.26"/>
    <circle class="cls-8" cx="414.32" cy="518.17" r="22.29"/>
  </g>
  <g>
    <circle class="cls-9" cx="596.28" cy="532.26" r="71.26"/>
    <circle class="cls-8" cx="556.08" cy="517.65" r="22.29"/>
  </g>
  <g>
    <circle class="cls-9" cx="309.05" cy="678.26" r="71.26"/>
    <circle class="cls-8" cx="268.85" cy="663.64" r="22.29"/>
  </g>
  <g>
    <circle class="cls-9" cx="451.87" cy="676.67" r="71.26"/>
    <circle class="cls-8" cx="411.68" cy="662.05" r="22.29"/>
  </g>
  <g>
    <circle class="cls-9" cx="382.76" cy="802.21" r="71.26"/>
    <circle class="cls-8" cx="342.56" cy="787.6" r="22.29"/>
  </g>
  <g>
    <path class="cls-2" d="M39.74,204.23c59.54-17.06,95.15.9,126.14,49.97,3.95,5.9,4.69,7.18,1.83-.3-1.98-5.26-4.38-12.24-5.84-18.51-3.16-12.92-3.72-26.75-1.76-39.93,1.51-10.96,4.24-20.55,3.93-29.82-.35-13.95-7.05-26.93-14.95-37.49,3.24-4.59,63.13,12.81,83.22,58.32,16.44,37.23-.91,77.06,6.16,78.81,12.08-13.92,19.19-33.73,21.88-52.32.74-4.4,2.22-14.89,5.12-15,1.48-.36,3.35,1.24,5.46,4.22,22.57,35.15,21.6,94.85-21.75,117.91-9.85,5.11-20.67,7.79-31.53,10.51"/>
    <path class="cls-2" d="M40.84,204.45c1.58,62.11,29.91,90.84,85.97,106.54,6.88,2.13,8.24,2.49.18,1.93-5.67-.37-13.11-.65-19.61-.25-13.35.69-26.83,4.11-38.97,9.78-10.09,4.59-18.5,9.95-27.52,12.32-13.6,3.68-28.1,1.01-40.66-3.45-3.44,4.45,30.78,56.58,80.19,62.42,40.41,4.78,73.39-23.5,77.14-17.26-10.17,15.5-27.61,27.69-44.91,35.31-4.1,1.9-14.08,6.27-13.29,8.99.92,4.25,13.81,5.83,18.41,6.56,44.87,6.05,100.54-20.7,96.98-73.53-.07-5.35-.46-10.88-.85-16.42"/>
  </g>
</svg>